PathFileType	4	(X/Y/Z)	OpenSim_Sub09_CSStiffKnee_Accel.trc
DataRate	CameraRate	NumFrames	NumMarkers	Units	OrigDataRate	OrigDataStartFrame	OrigNumFrames
100	100	13	8	m	100	891	7127
Frame#	Time	torso_imu_offset_imu	pelvis_imu_offset_imu	tibia_r_imu_offset_imu	femur_r_imu_offset_imu	tibia_l_imu_offset_imu	femur_l_imu_offset_imu	toes_r_imu_offset_imu	toes_l_imu_offset_imu
				X1	Y1	Z1	X2	Y2	Z2	X3	Y3	Z3	X4	Y4	Z4	X5	Y5	Z5	X6	Y6	Z6	X7	Y7	Z7	X8		Y8	Z8	

891	8.90000000	10.76515659	-0.98215769	0.22847783	5.84477151	0.78346758	6.10303550	9.53680817	1.04574790	1.45041316	10.57926527	-0.74733507	1.48172122	6.27639396	-6.34743204	2.12305378	8.74384233	-6.13858094	1.96948601	5.20660720	-1.82212246	8.35295867	2.35562248	-2.74083557	9.27465821
892	8.91000000	10.90770272	-0.88315774	0.51483956	6.13061224	1.11145802	6.24354360	9.64514445	1.17906787	1.14964228	11.40227274	-1.14146984	0.89100910	7.16077099	-5.00087841	3.21520491	9.05587631	-7.04335477	1.10133344	5.26975950	-1.85466702	8.32521586	2.62999629	-3.09835217	9.98533753
893	8.92000000	10.93899509	-0.84440602	0.81407254	6.39133946	1.20719133	6.51017616	9.99943266	1.36851581	0.70205952	11.46319040	-1.40665587	0.29123897	8.13154951	-3.65580263	3.82475149	8.87336793	-7.49905271	0.38646233	5.58374044	-1.66545492	8.20680174	3.20672763	-3.15414551	10.59187022
894	8.93000000	10.89691246	-0.83862541	1.15334345	6.64602789	1.18033826	6.81229013	10.34925300	1.16761158	0.45728761	10.64112799	-1.63071909	0.06402034	8.54939757	-1.98297369	4.30670753	8.70749344	-7.23320091	-0.05198573	6.11532937	-1.90792136	7.89363867	4.55232597	-2.11884728	11.15495983
895	8.94000000	10.72227473	-0.85308686	1.55195497	6.81160146	1.09174380	6.95907810	10.27465753	0.86577382	0.08383849	9.60003624	-1.74855321	-0.00619543	8.32619268	-0.32907015	4.14403692	8.44932739	-6.53309820	-0.18253994	5.96768811	-2.02927501	7.97061647	6.84678023	-0.35286478	11.67983005
896	8.95000000	10.42841102	-0.78884149	1.72452714	6.94065917	0.83847158	6.96206429	10.03243826	0.79941810	-0.09764650	8.84146904	-1.73643579	0.01269163	8.02099669	0.44703139	4.04567532	8.56555677	-5.18958849	0.25972890	6.04640404	-2.09717144	7.88145352	8.31484088	1.27066843	11.67303230
897	8.96000000	10.21064023	-0.64363134	1.82156830	7.00361326	0.56366433	6.97187959	9.81092307	0.73472076	-0.18894388	8.51787191	-1.63213541	-0.05829550	7.92659107	0.02834657	4.28388785	8.68934688	-3.11453416	0.88092163	6.21109102	-2.08706585	7.66474538	7.74891258	2.32400183	11.19614133
898	8.97000000	10.10619780	-0.49224272	1.96940690	7.07904456	0.36174027	6.84627254	9.57053567	0.34540101	-0.18218286	8.42941543	-1.36405725	-0.17304827	7.80930815	-0.90847712	4.49497372	8.71251842	-1.03126940	1.57667218	6.36929324	-2.08530350	7.56394489	6.20437272	2.70925669	10.77049688
899	8.98000000	9.92011583	-0.36822817	2.10082287	7.07995731	0.15138538	6.80194339	9.39921940	-0.07502191	-0.35168999	8.32447165	-1.00017038	-0.20073106	7.67408676	-1.72383792	4.59187564	8.67936450	0.63462827	2.25741582	6.48651072	-2.11466098	7.43546927	4.96065924	2.87952184	10.60369586
900	8.99000000	9.63596024	-0.35849070	2.23350712	6.97809618	0.00777741	6.74575531	9.16087164	-0.67059294	-0.25135882	8.15106508	-0.57841907	0.03601082	7.59896450	-2.04131582	4.50755038	8.34341547	1.69563456	3.02909746	6.38730505	-2.25015791	7.33722378	4.54355416	3.39573401	10.80056306
901	9	9.24997575	-0.36171009	2.22687874	6.81079026	-0.09276369	6.66657393	9.44959562	-1.35620430	0.01652435	8.07761074	-0.26063711	0.55070354	7.44455063	-1.61091825	4.87009254	8.15854158	2.08106674	3.32118230	5.05786065	-2.80418651	7.82779006	4.47144188	4.58411808	11.16126917
902	9.01000000	8.92655161	-0.40071954	2.21163435	6.76463241	-0.00776229	6.61637858	10.18401542	-1.51162074	0.27814253	8.54881934	-0.12509397	0.70589139	7.54705968	-1.09638308	5.20123851	8.17088767	2.12038553	3.00935091	4.26947894	-3.35809152	8.53406139	4.05008867	5.26413992	11.53745519
903	9.02000000	8.87813934	-0.56257840	2.31882156	6.78625771	0.42707183	6.63210016	11.07216217	-1.57870336	0.27856636	9.53298189	-0.11628510	0.33367870	8.15812485	-0.88262818	4.71387827	7.73709609	1.53218876	2.92737532	4.78332058	-2.49989527	8.64268264	3.37374191	5.25199698	11.58977517
